<?xml version="1.0" encoding="UTF-8"?>
<!-- Generated by @neplex/vectorizer (Using visioncortex VTracer) -->
<svg version="1.1" xmlns="http://www.w3.org/2000/svg" width="1024" height="1024">
<path d="M0 0 C1.217 0.002 2.434 0.004 3.687 0.007 C78.118 0.217 151.184 16.549 218.562 48.312 C220.178 49.074 220.178 49.074 221.826 49.851 C259.914 67.979 295.226 91.273 327.562 118.312 C328.153 118.804 328.744 119.296 329.353 119.803 C342.178 130.509 354.286 141.969 366.125 153.75 C367.089 154.707 367.089 154.707 368.072 155.683 C371.874 159.498 375.481 163.434 379.002 167.511 C380.894 169.695 382.852 171.815 384.812 173.938 C389.847 179.524 394.442 185.404 399.035 191.353 C400.609 193.373 402.208 195.371 403.812 197.367 C425.918 225.031 443.772 255.695 459.562 287.312 C459.993 288.165 460.423 289.017 460.866 289.895 C484.343 336.627 498.741 388.866 505.812 440.562 C506.039 442.208 506.039 442.208 506.271 443.887 C509.031 465.449 509.943 487.027 509.875 508.75 C509.873 509.965 509.871 511.18 509.869 512.432 C509.819 532.536 509.117 552.366 506.562 572.312 C506.478 572.975 506.393 573.638 506.305 574.321 C499.418 627.462 484.418 678.829 461.562 727.312 C460.801 728.928 460.801 728.928 460.024 730.576 C441.896 768.664 418.602 803.976 391.562 836.312 C391.071 836.903 390.579 837.494 390.072 838.103 C379.366 850.928 367.906 863.036 356.125 874.875 C355.487 875.517 354.849 876.16 354.192 876.822 C350.377 880.624 346.441 884.231 342.364 887.752 C340.18 889.644 338.06 891.602 335.938 893.562 C330.351 898.597 324.471 903.192 318.522 907.785 C316.502 909.359 314.504 910.958 312.508 912.562 C284.844 934.668 254.18 952.522 222.562 968.312 C221.71 968.743 220.858 969.173 219.98 969.616 C173.248 993.093 121.009 1007.491 69.312 1014.562 C68.215 1014.714 67.118 1014.865 65.988 1015.021 C44.426 1017.781 22.848 1018.693 1.125 1018.625 C-0.09 1018.623 -1.305 1018.621 -2.557 1018.619 C-22.661 1018.569 -42.491 1017.867 -62.438 1015.312 C-63.1 1015.228 -63.763 1015.143 -64.446 1015.055 C-117.587 1008.168 -168.954 993.168 -217.438 970.312 C-219.053 969.551 -219.053 969.551 -220.701 968.774 C-258.789 950.646 -294.101 927.352 -326.438 900.312 C-327.028 899.821 -327.619 899.329 -328.228 898.822 C-341.053 888.116 -353.161 876.656 -365 864.875 C-365.642 864.237 -366.285 863.599 -366.947 862.942 C-370.749 859.127 -374.356 855.191 -377.877 851.114 C-379.769 848.93 -381.727 846.81 -383.688 844.688 C-388.722 839.101 -393.317 833.221 -397.91 827.272 C-399.484 825.252 -401.083 823.254 -402.688 821.258 C-424.793 793.594 -442.647 762.93 -458.438 731.312 C-458.868 730.46 -459.298 729.608 -459.741 728.73 C-483.218 681.998 -497.616 629.759 -504.688 578.062 C-504.839 576.965 -504.99 575.868 -505.146 574.738 C-507.909 553.154 -508.818 531.556 -508.75 509.812 C-508.748 508.595 -508.746 507.378 -508.744 506.124 C-508.695 486.355 -507.982 466.922 -505.438 447.312 C-505.353 446.645 -505.268 445.977 -505.18 445.289 C-498.358 391.736 -483.474 340.179 -460.438 291.312 C-459.676 289.697 -459.676 289.697 -458.899 288.049 C-440.771 249.961 -417.477 214.649 -390.438 182.312 C-389.7 181.426 -389.7 181.426 -388.947 180.522 C-378.241 167.697 -366.781 155.589 -355 143.75 C-354.362 143.108 -353.724 142.465 -353.067 141.803 C-349.252 138.001 -345.316 134.394 -341.239 130.873 C-339.055 128.981 -336.935 127.023 -334.812 125.062 C-329.226 120.028 -323.346 115.433 -317.397 110.84 C-315.377 109.266 -313.379 107.667 -311.383 106.062 C-283.719 83.957 -253.055 66.103 -221.438 50.312 C-220.585 49.882 -219.733 49.452 -218.855 49.009 C-171.708 25.323 -119.686 11.481 -67.625 4.062 C-66.057 3.836 -66.057 3.836 -64.457 3.604 C-43.052 0.734 -21.574 -0.069 0 0 Z " fill="#000000" transform="translate(511.4375,2.6875)"/>
<path d="M0 0 C47.19 0 94.38 0 143 0 C133.571 25.143 133.571 25.143 129 32 C128.31 33.992 127.646 35.993 127 38 C123.932 45.784 120.491 53.399 117 61 C114.924 65.565 112.935 70.135 111.125 74.812 C109.595 78.701 107.834 82.402 105.938 86.125 C103.62 90.68 101.701 95.191 100 100 C97.524 106.625 94.589 112.884 91.379 119.184 C89.951 122.101 88.788 125.015 87.711 128.074 C86.902 130.265 85.964 132.373 85 134.5 C83.739 137.284 82.588 140.059 81.562 142.938 C80.474 145.927 79.164 148.683 77.688 151.5 C75.044 156.635 73.068 161.943 71.143 167.379 C69.765 171.211 68.159 174.555 66 178 C65.307 179.849 64.616 181.7 63.949 183.559 C62.307 187.783 60.33 191.855 58.414 195.961 C56.13 200.87 54.059 205.842 52.062 210.875 C50.468 214.882 48.781 218.831 47.008 222.762 C46.305 224.322 45.613 225.888 44.93 227.457 C44.582 228.255 44.234 229.053 43.875 229.875 C43.407 230.954 43.407 230.954 42.93 232.055 C42 234 42 234 40 237 C39.502 238.361 39.047 239.739 38.625 241.125 C37.08 245.922 35.099 250.424 33 255 C31.974 257.35 30.95 259.702 29.93 262.055 C29 264 29 264 27 267 C26.547 268.3 26.134 269.615 25.75 270.938 C24.148 275.955 21.817 280.473 19.414 285.148 C17.961 288.078 16.794 291 15.707 294.078 C14.337 297.802 12.638 301.388 11 305 C8.778 309.929 6.626 314.877 4.562 319.875 C2.516 324.818 0.348 329.692 -1.883 334.555 C-4.192 339.609 -6.308 344.743 -8.438 349.875 C-10.264 354.269 -12.144 358.633 -14.098 362.973 C-14.95 364.887 -15.759 366.815 -16.562 368.75 C-18 372 -18 372 -19.5 374.375 C-21.169 377.295 -22.099 380.135 -23.117 383.328 C-24.166 386.501 -25.319 389.624 -26.5 392.75 C-26.902 393.817 -27.304 394.885 -27.719 395.984 C-28.936 398.849 -30.38 401.351 -32 404 C-32.519 405.234 -33.002 406.484 -33.438 407.75 C-35.383 413.139 -37.456 418.534 -40.504 423.402 C-42.106 426.184 -43.009 428.806 -43.938 431.875 C-45.047 435.334 -46.113 438.517 -48 441.625 C-50.098 445.166 -51.517 448.683 -52.992 452.512 C-54.181 455.447 -55.576 458.225 -57.07 461.016 C-58.284 463.606 -59.105 466.283 -60 469 C-67.35 487.525 -67.35 487.525 -71 493 C-71.681 494.995 -72.344 496.996 -73 499 C-74.977 504.294 -77.072 509.162 -80 514 C-80.502 515.241 -80.979 516.492 -81.438 517.75 C-83.09 522.246 -85.055 526.623 -87 531 C-134.52 531 -182.04 531 -231 531 C-228 522 -228 522 -226.5 519.562 C-225.024 517.041 -224.383 514.99 -223.625 512.188 C-222.411 507.867 -220.671 504.679 -218.184 500.98 C-216.567 498.275 -215.786 495.491 -214.879 492.488 C-213.443 488.423 -211.382 484.681 -209.414 480.852 C-207.959 477.917 -206.79 474.99 -205.703 471.906 C-204.936 469.825 -204.046 467.83 -203.125 465.812 C-201.437 462.096 -199.984 458.327 -198.562 454.5 C-196.798 449.839 -194.768 445.663 -192.254 441.375 C-190.183 437.452 -188.736 433.299 -187.188 429.148 C-185.119 423.664 -182.857 418.364 -179.875 413.312 C-178.1 410.176 -177.123 407.41 -176 404 C-174.919 401.169 -173.775 398.366 -172.625 395.562 C-172.334 394.837 -172.042 394.112 -171.742 393.365 C-169.817 388.666 -167.554 384.387 -165 380 C-164.095 377.962 -164.095 377.962 -163.5 376.125 C-162.188 372.437 -160.642 368.904 -159.027 365.34 C-157.99 362.978 -157.053 360.594 -156.125 358.188 C-154.642 354.413 -152.931 350.848 -151.062 347.25 C-148.25 341.753 -146.219 336.154 -144.219 330.32 C-142.814 326.494 -141.076 322.968 -139.188 319.363 C-137.61 316.223 -136.341 312.996 -135.09 309.715 C-132.765 303.923 -130.126 298.263 -127.527 292.59 C-126.89 291.199 -126.89 291.199 -126.24 289.779 C-125.37 287.88 -124.497 285.982 -123.623 284.084 C-121.199 278.781 -119 273.476 -117 268 C-116.372 266.513 -115.73 265.032 -115.062 263.562 C-114.005 261.225 -112.951 258.887 -111.926 256.535 C-111.406 255.342 -111.406 255.342 -110.875 254.125 C-110.407 253.046 -110.407 253.046 -109.93 251.945 C-109 250 -109 250 -107 247 C-106.31 245.008 -105.646 243.007 -105 241 C-102.61 234.902 -100.032 228.941 -97.031 223.121 C-95.258 219.473 -93.765 215.708 -92.227 211.957 C-91.152 209.366 -90.031 206.806 -88.875 204.25 C-87.658 201.55 -86.559 198.851 -85.562 196.062 C-84.446 193.003 -83.109 190.149 -81.625 187.25 C-79.227 182.562 -77.191 177.777 -75.195 172.906 C-74.097 170.236 -72.972 167.582 -71.812 164.938 C-71.51 164.245 -71.207 163.553 -70.895 162.84 C-70 161 -70 161 -68 158 C-67.67 157.01 -67.34 156.02 -67 155 C-66 152 -66 152 -64 149 C-63.547 147.7 -63.134 146.385 -62.75 145.062 C-61.148 140.045 -58.817 135.527 -56.414 130.852 C-54.962 127.924 -53.796 125.006 -52.711 121.93 C-51.611 118.944 -50.284 116.066 -48.973 113.168 C-48.093 111.208 -47.26 109.235 -46.438 107.25 C-45 104 -45 104 -43.438 101.438 C-41.82 98.695 -40.993 96.024 -40 93 C-37.179 85.702 -33.895 78.713 -30.344 71.746 C-28.927 68.851 -27.777 65.953 -26.707 62.918 C-25.628 59.992 -24.314 57.179 -23.027 54.34 C-21.99 51.978 -21.053 49.594 -20.125 47.188 C-18.176 42.235 -15.794 37.555 -13.379 32.816 C-11.948 29.893 -10.784 26.972 -9.703 23.906 C-8.936 21.825 -8.046 19.83 -7.125 17.812 C-4.542 11.963 -2.296 5.969 0 0 Z " fill="#FDFDFD" transform="translate(423,238)"/>
<path d="M0 0 C2.464 -0.369 2.464 -0.369 5.631 -0.361 C6.829 -0.365 8.026 -0.369 9.26 -0.373 C10.594 -0.363 11.928 -0.352 13.262 -0.341 C14.661 -0.34 16.061 -0.34 17.46 -0.342 C21.266 -0.343 25.071 -0.325 28.877 -0.304 C32.851 -0.285 36.826 -0.284 40.8 -0.28 C48.33 -0.271 55.859 -0.246 63.388 -0.216 C71.959 -0.183 80.53 -0.166 89.1 -0.151 C106.734 -0.12 124.367 -0.067 142 0 C141.526 1.269 141.052 2.538 140.578 3.807 C140.314 4.514 140.05 5.22 139.778 5.948 C136.542 14.483 132.787 22.814 129.039 31.133 C127.147 35.355 125.328 39.599 123.562 43.875 C121.172 49.646 118.606 55.324 116 61 C113.924 65.565 111.935 70.135 110.125 74.812 C108.176 79.765 105.794 84.445 103.379 89.184 C101.951 92.101 100.788 95.015 99.711 98.074 C98.616 101.039 97.277 103.889 95.973 106.766 C94.785 109.494 93.776 112.266 92.809 115.078 C92 117 92 117 90.559 119.355 C88.887 122.191 87.765 124.976 86.625 128.062 C83.592 136.108 80.549 144.121 76.562 151.75 C73.961 156.796 72.035 162.037 70.143 167.38 C68.765 171.212 67.157 174.554 65 178 C64.331 179.841 63.663 181.682 63.004 183.527 C61.747 186.622 60.223 189.534 58.688 192.5 C55.368 198.95 52.812 205.556 50.34 212.367 C48.749 216.679 46.927 220.832 45 225 C43.974 227.35 42.95 229.702 41.93 232.055 C41 234 41 234 39 237 C38.524 238.32 38.09 239.656 37.688 241 C35.311 248.367 31.911 255.255 28.375 262.125 C26.828 265.171 25.566 268.111 24.562 271.375 C23.053 276.249 20.741 280.62 18.414 285.148 C16.961 288.078 15.794 291 14.707 294.078 C13.337 297.802 11.634 301.386 10 305 C7.089 311.496 4.246 318.021 1.438 324.562 C1.051 325.456 0.665 326.35 0.268 327.271 C-1.475 331.329 -3.168 335.383 -4.684 339.531 C-6 343 -6 343 -7.5 344.938 C-9.415 347.571 -10.144 350.204 -11.117 353.293 C-12.157 356.482 -13.313 359.613 -14.5 362.75 C-14.902 363.817 -15.304 364.885 -15.719 365.984 C-16.935 368.848 -18.378 371.352 -20 374 C-20.693 375.849 -21.384 377.7 -22.051 379.559 C-23.693 383.783 -25.67 387.855 -27.586 391.961 C-29.87 396.87 -31.941 401.842 -33.938 406.875 C-36.27 412.728 -38.816 418.463 -41.48 424.172 C-44.719 431.022 -44.719 431.022 -47.5 438.062 C-49.116 442.612 -51.398 446.818 -53.586 451.113 C-55.028 454.057 -56.203 456.993 -57.293 460.078 C-58.663 463.802 -60.362 467.388 -62 471 C-64.241 475.971 -66.412 480.962 -68.5 486 C-70.887 491.758 -73.401 497.45 -75.961 503.133 C-78.286 508.322 -80.494 513.553 -82.656 518.812 C-84.379 522.9 -86.198 526.946 -88 531 C-135.52 531 -183.04 531 -232 531 C-229 522 -229 522 -227.5 519.562 C-226.049 517.083 -225.426 515.128 -224.688 512.375 C-223.302 507.477 -221.132 503.463 -218.613 499.062 C-216.444 494.944 -214.793 490.684 -213.115 486.348 C-211.582 482.406 -209.905 478.645 -207.938 474.906 C-206.389 471.757 -205.175 468.477 -203.93 465.199 C-203 463 -203 463 -201 460 C-200.182 457.706 -199.486 455.39 -198.781 453.059 C-198 451 -198 451 -196 449 C-195.531 447.327 -195.066 445.652 -194.621 443.973 C-193.762 441.244 -192.46 438.835 -191.141 436.305 C-188.838 431.652 -186.965 426.802 -185 422 C-183.646 418.69 -182.305 415.501 -180.438 412.438 C-178.82 409.695 -177.993 407.024 -177 404 C-174.179 396.702 -170.895 389.713 -167.344 382.746 C-165.927 379.851 -164.777 376.953 -163.707 373.918 C-162.628 370.992 -161.314 368.179 -160.027 365.34 C-158.99 362.978 -158.053 360.594 -157.125 358.188 C-155.635 354.4 -153.924 350.806 -152.062 347.188 C-149.419 342.007 -147.314 336.752 -145.289 331.305 C-143.512 326.748 -141.425 322.357 -139.344 317.934 C-138.255 315.557 -137.269 313.204 -136.375 310.75 C-133.524 302.975 -129.865 295.531 -126.383 288.023 C-125.318 285.695 -124.293 283.364 -123.312 281 C-122 278 -122 278 -120.438 275.438 C-118.82 272.695 -117.993 270.024 -117 267 C-114.635 260.882 -112.02 254.948 -109 249.125 C-106.187 243.629 -104.152 238.012 -102.148 232.18 C-100.989 228.968 -99.62 226.043 -98.023 223.035 C-96.754 220.511 -95.695 217.927 -94.625 215.312 C-92.349 209.764 -89.873 204.329 -87.34 198.895 C-85.826 195.624 -84.412 192.316 -83 189 C-82.169 187.187 -81.335 185.374 -80.5 183.562 C-79.064 180.426 -77.708 177.316 -76.562 174.062 C-74.92 169.484 -72.647 165.237 -70.402 160.93 C-68.93 158.01 -68.93 158.01 -67.941 154.82 C-67 152 -67 152 -65 149 C-64.182 146.706 -63.486 144.39 -62.781 142.059 C-62 140 -62 140 -60 138 C-59.532 136.329 -59.068 134.658 -58.625 132.98 C-57.75 130.207 -56.42 127.751 -55.074 125.18 C-53.886 122.768 -52.908 120.319 -51.938 117.812 C-50.565 114.291 -48.958 111.234 -47 108 C-46.233 106.103 -45.54 104.188 -44.851 102.261 C-44.028 100.073 -43.116 97.958 -42.152 95.828 C-40.026 91.083 -38.004 86.298 -36 81.5 C-33.989 76.685 -31.964 71.876 -29.875 67.094 C-29.407 66.022 -29.407 66.022 -28.93 64.928 C-28 63 -28 63 -26 60 C-25.309 58.008 -24.644 56.007 -24 54 C-21.179 46.702 -17.895 39.713 -14.344 32.746 C-12.927 29.851 -11.777 26.953 -10.707 23.918 C-9.633 21.004 -8.324 18.203 -7.043 15.375 C-5.566 12.012 -4.247 8.592 -2.93 5.164 C-2 3 -2 3 0 0 Z " fill="#FDFDFD" transform="translate(688,238)"/>
</svg>
