<svg xmlns="http://www.w3.org/2000/svg" viewBox="0 0 500 400">
    <title>wcj-logo</title>

    <g transform="matrix(1, 0, 0, 1, 0, 6)">
        <path d="M 37.514 226.212 L 37.514 37.052 L 119.018 37.052 C 133.068 37.052 145.361 39.612 155.898 44.733 C 166.435 49.853 174.645 57.216 180.527 66.822 C 186.409 76.429 189.35 87.918 189.35 101.29 C 189.35 114.832 186.346 126.258 180.337 135.567 C 174.328 144.877 165.906 151.902 155.073 156.642 C 144.24 161.381 131.629 163.751 117.241 163.751 L 68.491 163.751 L 68.491 123.888 L 106.831 123.888 C 112.925 123.888 118.13 123.126 122.446 121.603 C 126.763 120.079 130.063 117.667 132.348 114.366 C 134.633 111.065 135.776 106.707 135.776 101.29 C 135.776 95.873 134.633 91.472 132.348 88.087 C 130.063 84.702 126.763 82.205 122.446 80.597 C 118.13 78.989 112.925 78.185 106.831 78.185 L 88.804 78.185 L 88.804 226.212 L 37.514 226.212 Z M 139.839 226.212 L 93.628 139.376 L 148.218 139.376 L 195.698 226.212 L 139.839 226.212 Z M 250.984 344.212 L 200.837 155.052 L 258.22 155.052 L 273.328 228.431 C 275.275 237.656 277.533 249.709 277.533 249.709 C 277.533 249.709 281.559 268.609 283.04 279.526 C 284.521 290.444 286.023 312.558 287.546 321.868 L 277.39 321.868 C 279.167 312.558 280.86 290.444 282.468 279.526 C 284.076 268.609 288.483 249.709 288.483 249.709 C 288.483 249.709 291.143 237.656 293.259 228.431 L 310.017 155.052 L 361.306 155.052 L 378.064 228.431 C 380.18 237.656 382.84 249.709 382.84 249.709 C 382.84 249.709 387.247 268.609 388.855 279.526 C 390.463 290.444 392.156 312.558 393.933 321.868 L 383.65 321.868 C 385.258 312.558 386.781 290.444 388.22 279.526 C 389.659 268.609 393.727 249.709 393.727 249.709 C 393.727 249.709 396.007 237.656 397.869 228.431 L 413.103 155.052 L 470.486 155.052 L 420.339 344.212 L 362.322 344.212 L 343.533 263.151 C 340.316 249.864 326.239 200.268 323.53 186.049 L 347.986 185.277 C 344.77 199.496 331.218 249.694 327.917 263.151 L 309.001 344.212 L 250.984 344.212 Z"
              style="fill: oklch(0.55 0.195 38.402); text-wrap-mode: nowrap; stroke-linecap: square; paint-order: stroke; stroke-width: 11px; stroke: oklch(0.98 0.016 73.684);"/>
    </g>
</svg>